<?xml version="1.0" standalone="no"?>
<!DOCTYPE svg PUBLIC "-//W3C//DTD SVG 20010904//EN"
 "http://www.w3.org/TR/2001/REC-SVG-20010904/DTD/svg10.dtd">
<svg version="1.0" xmlns="http://www.w3.org/2000/svg"
 width="512.000000pt" height="512.000000pt" viewBox="0 0 512.000000 512.000000"
 preserveAspectRatio="xMidYMid meet">
<metadata>
Created by potrace 1.14, written by Peter Selinger 2001-2017
</metadata>
<g transform="translate(0.000000,512.000000) scale(0.100000,-0.100000)"
fill="#000000" stroke="none">
<path d="M1075 5104 c-344 -60 -643 -248 -840 -529 -100 -144 -153 -260 -203
-449 l-27 -101 -2 -1425 c-2 -1582 -5 -1517 64 -1720 149 -441 485 -743 948
-853 89 -21 99 -21 1515 -24 784 -1 1445 2 1470 6 25 5 63 12 85 15 22 4 58
12 80 18 22 6 45 12 50 14 6 1 41 14 78 28 409 157 695 490 800 931 21 89 21
99 24 1515 1 889 -2 1448 -8 1485 -82 506 -416 899 -889 1045 -195 61 -145 59
-1670 58 -1147 0 -1409 -2 -1475 -14z"/>
</g>
</svg>
